<svg width="260" height="180" viewBox="0 0 260 180" fill="none" xmlns="http://www.w3.org/2000/svg">
<path d="M206.108 147.242L206.163 147.318L206.22 147.393C208.177 149.931 211.317 151.767 214.047 152.861C216.687 153.919 220.272 154.817 223.389 154.134C226.265 153.51 228.683 152.12 230.439 149.952C232.134 147.858 232.914 145.408 233.253 143.121L233.294 142.843L233.304 142.563C233.307 142.48 233.314 142.437 233.347 142.216C233.363 142.107 233.386 141.954 233.418 141.731C233.488 141.248 233.595 140.44 233.536 139.478C233.736 124.803 238.774 111.177 246.203 97.3915L247.819 94.6583L247.841 94.6203L247.863 94.5818L251.042 88.9804L252.684 86.2008L252.729 86.1262L252.77 86.05C256.117 79.9117 255.229 72.1789 249.089 68.0517L249.03 68.0121L248.97 67.9741C247.625 67.1242 245.668 66.4573 244.23 66.0394C242.75 65.6096 240.822 65.1571 239.326 65.105C231.266 64.8239 226.367 70.3274 223.773 74.808C212.862 92.2504 204.664 112.116 202.837 133.039L202.833 133.084L202.83 133.129C202.539 137.331 202.726 142.497 206.108 147.242Z" fill="#390075" stroke="#B3D133" stroke-width="10"/>
<mask id="path-2-outside-1_7_3" maskUnits="userSpaceOnUse" x="0" y="0" width="237" height="181" fill="black">
<rect fill="white" width="237" height="181"/>
<path fill-rule="evenodd" clip-rule="evenodd" d="M154.029 41.9433C154.029 47.1144 152.491 51.9985 149.761 56.3195C148.603 58.5757 147.392 60.7373 146.156 62.9445L146.155 62.946C141.262 71.6822 135.968 81.1335 131.931 99.991C131.439 102.286 131.033 104.024 130.709 105.412C129.713 109.668 129.487 110.637 129.933 114.315C130.474 119.584 137.014 119.288 140.034 116.963C164.184 97.3721 176.118 77.8153 191.484 52.635C192.577 50.8446 193.687 49.0257 194.82 47.1764C199.317 40.301 205.031 37.181 211.456 37.9925C214.312 38.3532 216.84 39.3927 219.278 41.1413C226.176 45.8543 228.313 53.8075 224.588 62.221C220.863 70.6345 216.87 79.2543 212.908 87.6378C206.711 100.301 203.34 113.561 200.444 126.882C198.803 134.118 199.363 141.152 202.125 147.983C205.273 155.584 204.525 161.492 199.375 165.884C196.1 168.832 192.083 170.006 187.086 169.375C175.901 167.962 169.512 159.231 167.229 148.618C167.118 148.157 167.054 147.636 166.989 147.102C166.774 145.342 166.54 143.433 164.555 142.998C162.534 142.167 161.549 143.309 160.47 144.561L160.469 144.561L160.469 144.562L160.469 144.562L160.468 144.563C160.198 144.876 159.922 145.196 159.623 145.494C153.367 151.707 145.746 157.782 128.374 155.588C121.48 154.718 115.356 151.39 110.532 145.897C110.837 147.075 111.158 148.254 111.498 149.433C114.223 158.601 110.839 165.639 102.092 168.706C93.9647 172.008 85.5925 168.847 81.3163 160.864C76.9471 152.668 75.4624 143.969 74.2261 134.656C73.0501 125.797 72.768 125.921 65.6397 129.061C65.2748 129.221 64.892 129.39 64.4903 129.566C50.0037 136.659 36.1735 132.854 26.2245 119.014C21.4515 112.258 18.6945 105.379 16.5271 97.4834C12.9664 84.6391 9.93297 71.8169 10.0011 58.3962C10.284 50.1875 14.0394 43.9972 20.1193 41.3383C22.0735 40.4837 24.2136 40.0531 26.5397 40.0464C35.8437 40.02 42.2296 46.323 42.9691 56.8639C43.0225 57.5493 43.0751 58.2327 43.1275 58.914L43.1276 58.916L43.1279 58.9198C43.9535 69.6516 44.7412 79.89 48.0021 90.1031C50.1256 96.7539 54.2593 96.9484 57.4058 90.9755C64.9868 76.5846 71.8558 59.885 73.935 43.66C73.9565 43.0904 74.0025 42.518 74.0739 41.9433C74.0739 24.3015 91.9725 10 114.051 10C136.13 10 154.029 24.3015 154.029 41.9433Z"/>
</mask>
<path fill-rule="evenodd" clip-rule="evenodd" d="M154.029 41.9433C154.029 47.1144 152.491 51.9985 149.761 56.3195C148.603 58.5757 147.392 60.7373 146.156 62.9445L146.155 62.946C141.262 71.6822 135.968 81.1335 131.931 99.991C131.439 102.286 131.033 104.024 130.709 105.412C129.713 109.668 129.487 110.637 129.933 114.315C130.474 119.584 137.014 119.288 140.034 116.963C164.184 97.3721 176.118 77.8153 191.484 52.635C192.577 50.8446 193.687 49.0257 194.82 47.1764C199.317 40.301 205.031 37.181 211.456 37.9925C214.312 38.3532 216.84 39.3927 219.278 41.1413C226.176 45.8543 228.313 53.8075 224.588 62.221C220.863 70.6345 216.87 79.2543 212.908 87.6378C206.711 100.301 203.34 113.561 200.444 126.882C198.803 134.118 199.363 141.152 202.125 147.983C205.273 155.584 204.525 161.492 199.375 165.884C196.1 168.832 192.083 170.006 187.086 169.375C175.901 167.962 169.512 159.231 167.229 148.618C167.118 148.157 167.054 147.636 166.989 147.102C166.774 145.342 166.54 143.433 164.555 142.998C162.534 142.167 161.549 143.309 160.47 144.561L160.469 144.561L160.469 144.562L160.469 144.562L160.468 144.563C160.198 144.876 159.922 145.196 159.623 145.494C153.367 151.707 145.746 157.782 128.374 155.588C121.48 154.718 115.356 151.39 110.532 145.897C110.837 147.075 111.158 148.254 111.498 149.433C114.223 158.601 110.839 165.639 102.092 168.706C93.9647 172.008 85.5925 168.847 81.3163 160.864C76.9471 152.668 75.4624 143.969 74.2261 134.656C73.0501 125.797 72.768 125.921 65.6397 129.061C65.2748 129.221 64.892 129.39 64.4903 129.566C50.0037 136.659 36.1735 132.854 26.2245 119.014C21.4515 112.258 18.6945 105.379 16.5271 97.4834C12.9664 84.6391 9.93297 71.8169 10.0011 58.3962C10.284 50.1875 14.0394 43.9972 20.1193 41.3383C22.0735 40.4837 24.2136 40.0531 26.5397 40.0464C35.8437 40.02 42.2296 46.323 42.9691 56.8639C43.0225 57.5493 43.0751 58.2327 43.1275 58.914L43.1276 58.916L43.1279 58.9198C43.9535 69.6516 44.7412 79.89 48.0021 90.1031C50.1256 96.7539 54.2593 96.9484 57.4058 90.9755C64.9868 76.5846 71.8558 59.885 73.935 43.66C73.9565 43.0904 74.0025 42.518 74.0739 41.9433C74.0739 24.3015 91.9725 10 114.051 10C136.13 10 154.029 24.3015 154.029 41.9433Z" fill="#390075"/>
<path d="M149.761 56.3195L141.307 50.9782L141.069 51.3553L140.865 51.752L149.761 56.3195ZM146.156 62.9445L137.431 58.0577L137.414 58.089L137.396 58.1204L146.156 62.9445ZM146.155 62.946L154.88 67.8328L154.897 67.8015L154.914 67.7701L146.155 62.946ZM131.931 99.991L141.709 102.084L141.709 102.084L131.931 99.991ZM130.709 105.412L120.971 103.135L120.971 103.135L130.709 105.412ZM129.933 114.315L139.88 113.293L139.871 113.202L139.86 113.111L129.933 114.315ZM140.034 116.963L146.135 124.886L146.235 124.809L146.334 124.729L140.034 116.963ZM191.484 52.635L200.021 57.8441L200.021 57.8441L191.484 52.635ZM194.82 47.1764L186.451 41.7025L186.37 41.8263L186.293 41.9525L194.82 47.1764ZM211.456 37.9925L210.203 47.9137L210.203 47.9137L211.456 37.9925ZM219.278 41.1413L213.45 49.2676L213.543 49.334L213.637 49.3983L219.278 41.1413ZM224.588 62.221L215.444 58.1729L215.444 58.1729L224.588 62.221ZM212.908 87.6378L221.89 92.0333L221.92 91.9725L221.949 91.9112L212.908 87.6378ZM200.444 126.882L210.197 129.094L210.207 129.05L210.216 129.006L200.444 126.882ZM202.125 147.983L192.854 151.731L192.869 151.771L192.886 151.81L202.125 147.983ZM199.375 165.884L192.886 158.276L192.784 158.363L192.684 158.452L199.375 165.884ZM187.086 169.375L188.339 159.453L188.339 159.453L187.086 169.375ZM167.229 148.618L177.005 146.515L176.981 146.402L176.954 146.289L167.229 148.618ZM166.989 147.102L176.915 145.888L176.915 145.888L166.989 147.102ZM164.555 142.998L160.752 152.247L161.561 152.58L162.415 152.767L164.555 142.998ZM160.47 144.561L167.541 151.632L167.802 151.371L168.043 151.091L160.47 144.561ZM160.469 144.562L153.398 137.491L153.007 137.882L152.661 138.315L160.469 144.562ZM160.469 144.562L167.943 151.206L168.116 151.012L168.278 150.809L160.469 144.562ZM160.468 144.563L152.994 137.92L152.944 137.976L152.894 138.033L160.468 144.563ZM159.623 145.494L152.576 138.399L152.575 138.399L159.623 145.494ZM128.374 155.588L129.627 145.667L129.627 145.667L128.374 155.588ZM110.532 145.897L118.046 139.298L100.851 148.403L110.532 145.897ZM111.498 149.433L101.887 152.196L101.899 152.239L101.912 152.283L111.498 149.433ZM102.092 168.706L98.7825 159.27L98.5531 159.35L98.328 159.442L102.092 168.706ZM81.3163 160.864L72.4919 165.568L72.4965 165.577L72.5011 165.586L81.3163 160.864ZM74.2261 134.656L64.3131 135.972L64.3131 135.972L74.2261 134.656ZM65.6397 129.061L61.6088 119.909L61.6087 119.909L65.6397 129.061ZM64.4903 129.566L60.4834 120.404L60.286 120.49L60.0926 120.585L64.4903 129.566ZM26.2245 119.014L18.0573 124.784L18.0808 124.817L18.1047 124.85L26.2245 119.014ZM16.5271 97.4834L26.1704 94.8362L26.167 94.8241L26.1637 94.812L16.5271 97.4834ZM10.0011 58.3962L0.00705866 58.0518L0.00200142 58.1986L0.00125567 58.3454L10.0011 58.3962ZM20.1193 41.3383L24.1262 50.5005L24.1262 50.5005L20.1193 41.3383ZM42.9691 56.8639L32.9936 57.5637L32.9963 57.6019L32.9993 57.6401L42.9691 56.8639ZM43.1275 58.914L53.098 58.1471L53.098 58.147L43.1275 58.914ZM43.1276 58.916L33.1571 59.6829L33.1576 59.6898L43.1276 58.916ZM43.1279 58.9198L53.0985 58.1527L53.0979 58.146L43.1279 58.9198ZM48.0021 90.1031L38.4759 93.1447L38.4759 93.1447L48.0021 90.1031ZM57.4058 90.9755L66.2533 95.6362L66.2533 95.6362L57.4058 90.9755ZM73.935 43.66L83.8539 44.9311L83.911 44.4854L83.9279 44.0364L73.935 43.66ZM74.0739 41.9433L83.9976 43.1764L84.0739 42.5622V41.9433H74.0739ZM158.215 61.6608C161.872 55.8732 164.029 49.1553 164.029 41.9433H144.029C144.029 45.0735 143.111 48.1238 141.307 50.9782L158.215 61.6608ZM154.88 67.8312C156.103 65.6484 157.403 63.3305 158.657 60.887L140.865 51.752C139.803 53.8208 138.681 55.8261 137.431 58.0577L154.88 67.8312ZM154.914 67.7701L154.915 67.7685L137.396 58.1204L137.395 58.122L154.914 67.7701ZM141.709 102.084C145.446 84.6305 150.204 76.1799 154.88 67.8328L137.43 58.0593C132.319 67.1845 126.49 77.6365 122.152 97.8975L141.709 102.084ZM140.446 107.688C140.773 106.291 141.197 104.477 141.709 102.084L122.152 97.8975C121.682 100.095 121.294 101.756 120.971 103.135L140.446 107.688ZM139.86 113.111C139.674 111.576 139.712 111.255 139.729 111.091C139.775 110.64 139.895 110.044 140.446 107.688L120.971 103.135C120.527 105.036 120.036 107.053 119.831 109.07C119.597 111.374 119.746 113.376 120.006 115.519L139.86 113.111ZM133.933 109.04C134.409 108.673 134.706 108.602 134.738 108.594C134.786 108.581 135.009 108.522 135.454 108.585C135.899 108.648 136.983 108.906 138.082 109.916C139.314 111.049 139.791 112.418 139.88 113.293L119.985 115.337C120.346 118.846 121.842 122.154 124.547 124.641C127.119 127.005 130.128 128.031 132.654 128.388C137.353 129.053 142.456 127.719 146.135 124.886L133.933 109.04ZM182.948 47.4258C167.568 72.6288 156.403 90.8072 133.734 109.197L146.334 124.729C171.964 103.937 184.668 83.0018 200.021 57.8441L182.948 47.4258ZM186.293 41.9525C185.155 43.8104 184.04 45.6365 182.948 47.4259L200.021 57.8441C201.114 56.0526 202.219 54.241 203.347 52.4002L186.293 41.9525ZM212.709 28.0713C201.457 26.6501 192.403 32.6028 186.451 41.7025L203.189 52.6503C206.231 47.9993 208.605 47.7119 210.203 47.9137L212.709 28.0713ZM225.106 33.0151C221.437 30.3841 217.358 28.6584 212.709 28.0713L210.203 47.9137C211.266 48.0479 212.242 48.4014 213.45 49.2676L225.106 33.0151ZM233.732 66.2691C236.359 60.3345 237.175 53.9374 235.603 47.8091C234.02 41.6355 230.202 36.4935 224.919 32.8844L213.637 49.3983C215.253 50.5021 215.952 51.6932 216.23 52.7778C216.52 53.9077 216.541 55.694 215.444 58.1729L233.732 66.2691ZM221.949 91.9112C225.932 83.4843 229.962 74.7843 233.732 66.2691L215.444 58.1729C211.764 66.4848 207.809 75.0244 203.867 83.3644L221.949 91.9112ZM210.216 129.006C213.08 115.831 216.25 103.558 221.89 92.0333L203.926 83.2423C197.171 97.0442 193.599 111.292 190.672 124.758L210.216 129.006ZM211.396 144.236C209.404 139.309 209.003 134.356 210.197 129.094L190.692 124.67C188.603 133.88 189.322 142.995 192.854 151.731L211.396 144.236ZM205.864 173.493C210.077 169.9 212.929 165.217 213.755 159.591C214.542 154.233 213.355 148.965 211.364 144.157L192.886 151.81C194.042 154.602 194.055 156.09 193.968 156.684C193.92 157.01 193.823 157.477 192.886 158.276L205.864 173.493ZM185.833 179.296C193.339 180.244 200.365 178.448 206.066 173.316L192.684 158.452C191.836 159.216 190.828 159.768 188.339 159.453L185.833 179.296ZM157.452 150.721C160.256 163.756 168.915 177.159 185.833 179.296L188.339 159.453C182.888 158.765 178.767 154.706 177.005 146.515L157.452 150.721ZM157.063 148.316C157.111 148.71 157.236 149.829 157.504 150.948L176.954 146.289C176.974 146.374 176.984 146.429 176.988 146.446C176.991 146.463 176.989 146.456 176.983 146.415C176.977 146.374 176.968 146.314 176.957 146.222C176.945 146.128 176.932 146.027 176.915 145.888L157.063 148.316ZM162.415 152.767C161.385 152.541 160.203 152.021 159.14 151.086C158.121 150.19 157.571 149.23 157.295 148.608C157.159 148.302 157.08 148.058 157.037 147.909C156.995 147.761 156.978 147.67 156.977 147.665C156.976 147.66 156.984 147.702 157 147.819C157.017 147.943 157.034 148.083 157.063 148.316L176.915 145.888C176.853 145.383 176.63 142.873 175.577 140.498C174.183 137.356 171.315 134.242 166.695 133.23L162.415 152.767ZM168.043 151.091C168.37 150.712 168.356 150.738 168.278 150.815C168.17 150.92 167.69 151.382 166.866 151.822C165.951 152.31 164.782 152.68 163.464 152.713C162.202 152.744 161.257 152.455 160.752 152.247L168.359 133.75C164.942 132.345 161.036 132.264 157.452 134.176C154.852 135.563 153.113 137.779 152.896 138.031L168.043 151.091ZM167.541 151.633L167.541 151.632L153.399 137.49L153.398 137.49L167.541 151.633ZM167.54 151.633L167.541 151.633L153.398 137.49L153.398 137.491L167.54 151.633ZM168.278 150.809L168.278 150.809L152.661 138.315L152.66 138.315L168.278 150.809ZM167.942 151.207L167.943 151.206L152.995 137.918L152.994 137.92L167.942 151.207ZM166.67 152.589C167.289 151.974 167.812 151.359 168.042 151.093L152.894 138.033C152.749 138.201 152.676 138.286 152.611 138.358C152.553 138.423 152.547 138.427 152.576 138.399L166.67 152.589ZM127.121 165.509C137.182 166.78 145.24 165.742 152.008 162.927C158.69 160.147 163.273 155.963 166.67 152.589L152.575 138.399C149.717 141.238 147.361 143.198 144.326 144.461C141.376 145.688 136.938 146.59 129.627 145.667L127.121 165.509ZM103.019 152.496C109.361 159.718 117.668 164.316 127.121 165.509L129.627 145.667C125.292 145.12 121.352 143.062 118.046 139.298L103.019 152.496ZM121.108 146.671C120.794 145.579 120.496 144.485 120.213 143.391L100.851 148.403C101.178 149.664 101.522 150.929 101.887 152.196L121.108 146.671ZM105.401 178.143C111.681 175.941 117.095 171.892 120.09 165.729C123.055 159.631 122.958 152.89 121.083 146.584L101.912 152.283C102.762 155.143 102.336 156.506 102.103 156.985C101.901 157.4 101.25 158.405 98.7825 159.27L105.401 178.143ZM72.5011 165.586C79.0694 177.848 92.754 183.293 105.855 177.971L98.328 159.442C95.1753 160.722 92.1156 159.847 90.1314 156.142L72.5011 165.586ZM64.3131 135.972C65.5579 145.349 67.2007 155.643 72.4919 165.568L90.1406 156.16C86.6935 149.694 85.367 142.589 84.1392 133.34L64.3131 135.972ZM69.6706 138.212C70.5921 137.807 71.2647 137.511 71.8322 137.276C72.1045 137.163 72.3104 137.082 72.4669 137.024C72.5434 136.995 72.6008 136.975 72.6418 136.961C72.683 136.947 72.7019 136.941 72.7015 136.941C72.7012 136.942 72.6746 136.95 72.6248 136.962C72.5753 136.974 72.4944 136.993 72.3859 137.013C72.1789 137.052 71.8043 137.108 71.3049 137.115C70.2315 137.128 68.5884 136.902 66.9145 135.87C65.2954 134.871 64.4448 133.607 64.0669 132.905C63.7248 132.269 63.6499 131.875 63.7028 132.081C63.7446 132.245 63.8237 132.613 63.9376 133.324C64.0488 134.019 64.1669 134.871 64.3131 135.972L84.1392 133.34C83.8659 131.282 83.558 128.998 83.0787 127.124C82.719 125.718 81.5887 121.423 77.4155 118.848C72.9381 116.086 68.4164 117.346 66.9449 117.788C65.1639 118.323 63.1364 119.236 61.6088 119.909L69.6706 138.212ZM68.4971 138.728C68.9127 138.546 69.3071 138.372 69.6706 138.212L61.6087 119.909C61.2425 120.07 60.8713 120.234 60.4834 120.404L68.4971 138.728ZM18.1047 124.85C24.1054 133.198 31.8264 139.252 40.9989 141.78C50.2329 144.325 59.8222 142.986 68.8879 138.547L60.0926 120.585C54.6718 123.239 50.1027 123.544 46.3127 122.499C42.4612 121.438 38.2926 118.669 34.3443 113.177L18.1047 124.85ZM6.88386 100.131C9.24856 108.745 12.4114 116.793 18.0573 124.784L34.3917 113.243C30.4917 107.723 28.1403 102.012 26.1704 94.8362L6.88386 100.131ZM0.00125567 58.3454C-0.074348 73.2325 3.29356 87.1796 6.89055 100.155L26.1637 94.812C22.6393 82.0986 19.9403 70.4013 20.001 58.447L0.00125567 58.3454ZM16.1124 32.1762C5.70201 36.729 0.389303 46.9592 0.00705866 58.0518L19.9952 58.7406C20.1787 53.4157 22.3769 51.2655 24.1262 50.5005L16.1124 32.1762ZM26.5113 30.0465C22.9408 30.0566 19.4312 30.7248 16.1124 32.1762L24.1262 50.5005C24.7159 50.2426 25.4865 50.0495 26.568 50.0464L26.5113 30.0465ZM52.9446 56.164C52.4454 49.048 49.9551 42.4047 45.0839 37.4685C40.1371 32.4555 33.5355 30.0265 26.5113 30.0465L26.568 50.0464C28.8479 50.0399 30.0912 50.7492 30.8482 51.5164C31.6809 52.3602 32.7534 54.1388 32.9936 57.5637L52.9446 56.164ZM53.098 58.147C53.0456 57.4664 52.9927 56.7784 52.9389 56.0876L32.9993 57.6401C33.0522 58.3202 33.1045 58.9989 33.1569 59.6811L53.098 58.147ZM53.0982 58.149L53.098 58.1471L33.1569 59.681L33.1571 59.6829L53.0982 58.149ZM53.0979 58.146L53.0976 58.1422L33.1576 59.6898L33.1579 59.6936L53.0979 58.146ZM57.5283 87.0615C54.6791 78.1378 53.9377 69.0619 53.0985 58.1527L33.1574 59.6868C33.9693 70.2412 34.8033 81.6422 38.4759 93.1447L57.5283 87.0615ZM48.5583 86.3148C48.1519 87.0864 48.0466 86.9939 48.5139 86.6054C49.0298 86.1764 50.6418 85.1099 53.1061 85.3041C55.598 85.5005 57.0532 86.8342 57.526 87.3873C57.9406 87.8723 57.8128 87.9523 57.5283 87.0615L38.4759 93.1447C39.2532 95.5793 40.4384 98.1777 42.3236 100.383C44.2671 102.656 47.3506 104.913 51.5346 105.242C55.6911 105.57 59.0592 103.848 61.3014 101.983C63.4951 100.159 65.0865 97.8511 66.2533 95.6362L48.5583 86.3148ZM64.0161 42.3889C62.1556 56.9072 55.8964 72.385 48.5583 86.3148L66.2533 95.6362C74.0772 80.7841 81.556 62.8628 83.8539 44.9311L64.0161 42.3889ZM64.1502 40.7103C64.0434 41.5696 63.9743 42.4278 63.9421 43.2835L83.9279 44.0364C83.9386 43.753 83.9616 43.4664 83.9976 43.1764L64.1502 40.7103ZM114.051 0C88.6595 0 64.0739 16.8019 64.0739 41.9433H84.0739C84.0739 31.8012 95.2854 20 114.051 20V0ZM164.029 41.9433C164.029 16.8018 139.443 0 114.051 0V20C132.818 20 144.029 31.8012 144.029 41.9433H164.029Z" fill="#B3D133" mask="url(#path-2-outside-1_7_3)"/>
<ellipse cx="101.948" cy="57.915" rx="11.9933" ry="7.98584" fill="#F5F5F5"/>
<ellipse cx="97.9511" cy="57.9152" rx="3.99802" ry="3.99292" fill="#390075"/>
</svg>
